<?xml version="1.0" standalone="no"?><!DOCTYPE svg PUBLIC "-//W3C//DTD SVG 1.1//EN" "http://www.w3.org/Graphics/SVG/1.1/DTD/svg11.dtd"><svg t="1652778287700" class="icon" viewBox="0 0 1024 1024" version="1.1" xmlns="http://www.w3.org/2000/svg" p-id="2006" xmlns:xlink="http://www.w3.org/1999/xlink" width="200" height="200"><defs><style type="text/css">@font-face { font-family: feedback-iconfont; src: url("//at.alicdn.com/t/font_1031158_u69w8yhxdu.woff2?t=1630033759944") format("woff2"), url("//at.alicdn.com/t/font_1031158_u69w8yhxdu.woff?t=1630033759944") format("woff"), url("//at.alicdn.com/t/font_1031158_u69w8yhxdu.ttf?t=1630033759944") format("truetype"); }
</style></defs><path d="M642.88 1012.12h-262.5c-203.65 0-368.75-165.09-368.75-368.75v-262.5c0-203.65 165.1-368.75 368.75-368.75h262.5c203.65 0 368.75 165.1 368.75 368.75v262.5c0 203.65-165.1 368.75-368.75 368.75z" fill="#FF5C5C" p-id="2007"></path><path d="M120.95 905.36c20.77-140.44 96.4-284.55 191.1-379.25C433.62 404.54 614.2 329.75 786.09 329.75c79.25 0 154.61 14.47 225.28 40.77-5.49-198.86-168.3-358.41-368.49-358.41h-262.5c-203.66 0-368.75 165.09-368.75 368.75v262.5c0 102.49 41.83 195.17 109.32 262z" fill="#FF8F8F" p-id="2008"></path><path d="M723.66 213.55c-7.63-8.42-17.65-13.93-27.47-13.93L376 296.79c-16.72 0-26.35 15.72-21.51 35.11 0.24 0.98 0.65 1.89 0.96 2.85 0.14 0.7 0.16 1.37 0.34 2.09l41.5 166.44c0.06 0.26 0.06 0.5 0.12 0.76s0.19 0.5 0.26 0.76l31.61 126.77h-27.24c-48.4 0-76.39 45.67-62.39 101.82s64.76 101.82 113.16 101.82 76.39-45.67 62.39-101.82l-15.24-61.13v-0.01l-35.32-141.67 269.72-81.85 67.88 272.24H775c-48.4 0-76.39 45.67-62.39 101.82 14 56.15 64.76 101.82 113.16 101.82s76.39-45.67 62.39-101.82l-15.39-61.73-9.99-40.09-119.8-480.35c-2.82-11.32-10.3-21.26-19.32-27.07zM825.08 822.8c3.94 15.81-3.94 28.67-17.57 28.67s-27.93-12.87-31.87-28.67c-3.94-15.81 3.94-28.67 17.57-28.67h24.72l7.15 28.67z m-372.96-89.41c3.94 15.81-3.94 28.67-17.57 28.67s-27.93-12.87-31.87-28.67 3.94-28.67 17.57-28.67h24.72l7.15 28.67z m-5.01-273.02L421.7 358.45l269.72-81.85 25.41 101.92-269.72 81.85z" fill="#FF3939" p-id="2009"></path><path d="M724.66 211.63c-5.53-7.26-14.17-12.01-24-12.01l-344.42 83.77c-16.72 0-30.27 13.55-30.27 30.27 0 0.84 0.18 1.63 0.25 2.46-0.04 0.61-0.18 1.18-0.18 1.8V461.4c0 0.22-0.07 0.43-0.07 0.66s0.06 0.43 0.07 0.66v109.29H298.8c-48.4 0-87.78 39.37-87.78 87.78s39.37 87.78 87.78 87.78 87.78-39.37 87.78-87.78V607.1 484.94l290.12-70.56v234.69h-27.24c-48.4 0-87.78 39.37-87.78 87.78 0 48.4 39.37 87.78 87.78 87.78s87.78-39.37 87.78-87.78V234.97c0-9.76-5.01-18.33-12.58-23.34z m-50.48 525.21c0 13.63-11.09 24.72-24.72 24.72s-24.72-11.09-24.72-24.72 11.09-24.72 24.72-24.72h24.72v24.72z m-350.66-77.07c0 13.63-11.09 24.72-24.72 24.72s-24.72-11.09-24.72-24.72 11.09-24.72 24.72-24.72h24.72v24.72z m63.05-235.37v-87.86l290.12-70.56v87.86L386.57 424.4z" fill="#FFFFFF" p-id="2010"></path></svg>